# xmcd
#
# Track frame offsets: 
#        150
#        15235
#        36135
#        54124
#        75800
#        98749
#        119462
#        146206
#        163223
#        184616
#
# Disc length: 2608 seconds
#
# Revision: 2
# Processed by: cddbd v1.5.2PL0 Copyright (c) Steve Scherf et al.
# Submitted via: ExactAudioCopy v0.95b4
#
DISCID=700a2e0a
DTITLE=°­ÀÎ¿À(Kang Ino) - My World
DYEAR=2005
DGENRE=Funk rock
TTITLE0=Confusion
TTITLE1=My World
TTITLE2=Into The Dreams
TTITLE3=As The Leaves
TTITLE4=Missing You
TTITLE5=Black and White
TTITLE6=The Numbness
TTITLE7=A Rainbow
TTITLE8=Children
TTITLE9=Sunset
EXTD=
EXTT0=
EXTT1=
EXTT2=
EXTT3=
EXTT4=
EXTT5=
EXTT6=
EXTT7=
EXTT8=
EXTT9=
PLAYORDER=
